<svg xmlns="http://www.w3.org/2000/svg" width="15" height="15" viewBox="0 0 15 15 " fill="none" class="ml-2">
    <path fill-rule="evenodd" clip-rule="evenodd" d="M15.0008 0.624512C15.0008 0.458751 14.9349 0.29978 14.8177 0.18257C14.7005 0.0653599 14.5415 -0.000488281 14.3758 -0.000488281H6.87579C6.71003 -0.000488281 6.55106 0.0653599 6.43385 0.18257C6.31664 0.29978 6.25079 0.458751 6.25079 0.624512C6.25079 0.790272 6.31664 0.949243 6.43385 1.06645C6.55106 1.18366 6.71003 1.24951 6.87579 1.24951H12.867L0.183289 13.932C0.125179 13.9901 0.0790843 14.0591 0.0476354 14.135C0.0161866 14.211 0 14.2923 0 14.3745C0 14.4567 0.0161866 14.5381 0.0476354 14.614C0.0790843 14.6899 0.125179 14.7589 0.183289 14.817C0.241399 14.8751 0.310386 14.9212 0.38631 14.9527C0.462234 14.9841 0.54361 15.0003 0.625789 15.0003C0.707969 15.0003 0.789344 14.9841 0.865269 14.9527C0.941193 14.9212 1.01018 14.8751 1.06829 14.817L13.7508 2.13326V8.12451C13.7508 8.29027 13.8166 8.44924 13.9338 8.56645C14.0511 8.68366 14.21 8.74951 14.3758 8.74951C14.5415 8.74951 14.7005 8.68366 14.8177 8.56645C14.9349 8.44924 15.0008 8.29027 15.0008 8.12451V0.624512Z" fill="#0A142F"></path>
</svg>