<svg xmlns="http://www.w3.org/2000/svg" width="100%" viewBox="0 0 1366 134" fill="none">
    <path d="M-0.196023 30.8636V2.54545H112.318V30.8636H73.3807V132H38.7415V30.8636H-0.196023ZM125.545 132V2.54545H218.843V30.8636H160.69V53.1136H214.039V81.4318H160.69V103.682H218.59V132H125.545ZM306.058 43C305.72 38.786 304.14 35.4991 301.317 33.1392C298.536 30.7794 294.3 29.5994 288.612 29.5994C284.987 29.5994 282.017 30.0419 279.699 30.9268C277.423 31.7696 275.738 32.9285 274.642 34.4034C273.546 35.8783 272.978 37.5639 272.935 39.4602C272.851 41.0194 273.125 42.4311 273.757 43.6953C274.431 44.9174 275.485 46.0341 276.918 47.0455C278.35 48.0147 280.183 48.8996 282.417 49.7003C284.65 50.5009 287.305 51.2173 290.381 51.8494L301.001 54.125C308.165 55.642 314.296 57.6437 319.395 60.13C324.494 62.6162 328.666 65.545 331.911 68.9162C335.155 72.2453 337.536 75.9957 339.053 80.1676C340.612 84.3395 341.413 88.8906 341.455 93.821C341.413 102.333 339.285 109.539 335.071 115.439C330.857 121.339 324.831 125.826 316.993 128.903C309.197 131.979 299.821 133.517 288.864 133.517C277.613 133.517 267.794 131.853 259.408 128.523C251.065 125.194 244.575 120.074 239.94 113.163C235.346 106.21 233.029 97.3187 232.987 86.4886H266.362C266.572 90.4498 267.563 93.7789 269.332 96.4759C271.102 99.1728 273.589 101.217 276.791 102.607C280.036 103.998 283.892 104.693 288.359 104.693C292.109 104.693 295.249 104.23 297.777 103.303C300.305 102.375 302.223 101.09 303.529 99.4467C304.835 97.8033 305.51 95.928 305.552 93.821C305.51 91.8404 304.857 90.1127 303.592 88.6378C302.37 87.1207 300.348 85.7723 297.524 84.5923C294.701 83.3703 290.887 82.2325 286.083 81.179L273.188 78.3977C261.726 75.9115 252.687 71.7607 246.071 65.9453C239.497 60.0878 236.231 52.1023 236.273 41.9886C236.231 33.7713 238.423 26.5864 242.847 20.4339C247.314 14.2393 253.488 9.41429 261.368 5.9588C269.29 2.50331 278.371 0.775563 288.612 0.775563C299.062 0.775563 308.101 2.52438 315.729 6.02201C323.356 9.51965 329.235 14.45 333.364 20.8132C337.536 27.1342 339.643 34.5298 339.685 43H306.058ZM351.284 30.8636V2.54545H463.799V30.8636H424.861V132H390.222V30.8636H351.284ZM512.17 2.54545V132H477.025V2.54545H512.17ZM528.826 2.54545H572.568L602.656 75.8693H604.173L634.261 2.54545H678.002V132H643.616V57.1591H642.605L613.781 130.989H593.048L564.224 56.6534H563.213V132H528.826V2.54545ZM820.067 67.2727C820.067 81.6847 817.265 93.8421 811.66 103.745C806.056 113.606 798.492 121.086 788.968 126.185C779.444 131.241 768.825 133.77 757.11 133.77C745.311 133.77 734.649 131.22 725.126 126.121C715.644 120.98 708.101 113.479 702.496 103.619C696.934 93.7157 694.153 81.6004 694.153 67.2727C694.153 52.8608 696.934 40.7244 702.496 30.8636C708.101 20.9607 715.644 13.4808 725.126 8.424C734.649 3.32504 745.311 0.775563 757.11 0.775563C768.825 0.775563 779.444 3.32504 788.968 8.424C798.492 13.4808 806.056 20.9607 811.66 30.8636C817.265 40.7244 820.067 52.8608 820.067 67.2727ZM783.911 67.2727C783.911 59.5189 782.879 52.9872 780.814 47.6776C778.791 42.3258 775.778 38.2803 771.775 35.5412C767.814 32.7599 762.925 31.3693 757.11 31.3693C751.295 31.3693 746.385 32.7599 742.382 35.5412C738.421 38.2803 735.408 42.3258 733.343 47.6776C731.32 52.9872 730.309 59.5189 730.309 67.2727C730.309 75.0265 731.32 81.5793 733.343 86.9311C735.408 92.2408 738.421 96.2862 742.382 99.0675C746.385 101.807 751.295 103.176 757.11 103.176C762.925 103.176 767.814 101.807 771.775 99.0675C775.778 96.2862 778.791 92.2408 780.814 86.9311C782.879 81.5793 783.911 75.0265 783.911 67.2727ZM948.337 2.54545V132H919.007L872.232 63.9858H871.473V132H836.328V2.54545H866.163L912.18 70.3068H913.192V2.54545H948.337ZM1000.11 2.54545V132H964.961V2.54545H1000.11ZM1050.39 132H1012.46L1055.19 2.54545H1103.23L1145.96 132H1108.04L1079.72 38.196H1078.71L1050.39 132ZM1043.31 80.9261H1114.61V107.222H1043.31V80.9261ZM1158.43 132V2.54545H1193.58V103.682H1245.91V132H1158.43ZM1329.91 43C1329.57 38.786 1327.99 35.4991 1325.16 33.1392C1322.38 30.7794 1318.15 29.5994 1312.46 29.5994C1308.84 29.5994 1305.86 30.0419 1303.55 30.9268C1301.27 31.7696 1299.59 32.9285 1298.49 34.4034C1297.39 35.8783 1296.83 37.5639 1296.78 39.4602C1296.7 41.0194 1296.97 42.4311 1297.6 43.6953C1298.28 44.9174 1299.33 46.0341 1300.77 47.0455C1302.2 48.0147 1304.03 48.8996 1306.26 49.7003C1308.5 50.5009 1311.15 51.2173 1314.23 51.8494L1324.85 54.125C1332.01 55.642 1338.14 57.6437 1343.24 60.13C1348.34 62.6162 1352.51 65.545 1355.76 68.9162C1359 72.2453 1361.38 75.9957 1362.9 80.1676C1364.46 84.3395 1365.26 88.8906 1365.3 93.821C1365.26 102.333 1363.13 109.539 1358.92 115.439C1354.7 121.339 1348.68 125.826 1340.84 128.903C1333.04 131.979 1323.67 133.517 1312.71 133.517C1301.46 133.517 1291.64 131.853 1283.26 128.523C1274.91 125.194 1268.42 120.074 1263.79 113.163C1259.19 106.21 1256.88 97.3187 1256.83 86.4886H1290.21C1290.42 90.4498 1291.41 93.7789 1293.18 96.4759C1294.95 99.1728 1297.44 101.217 1300.64 102.607C1303.88 103.998 1307.74 104.693 1312.21 104.693C1315.96 104.693 1319.1 104.23 1321.62 103.303C1324.15 102.375 1326.07 101.09 1327.38 99.4467C1328.68 97.8033 1329.36 95.928 1329.4 93.821C1329.36 91.8404 1328.7 90.1127 1327.44 88.6378C1326.22 87.1207 1324.2 85.7723 1321.37 84.5923C1318.55 83.3703 1314.73 82.2325 1309.93 81.179L1297.04 78.3977C1285.57 75.9115 1276.53 71.7607 1269.92 65.9453C1263.34 60.0878 1260.08 52.1023 1260.12 41.9886C1260.08 33.7713 1262.27 26.5864 1266.69 20.4339C1271.16 14.2393 1277.34 9.41429 1285.22 5.9588C1293.14 2.50331 1302.22 0.775563 1312.46 0.775563C1322.91 0.775563 1331.95 2.52438 1339.58 6.02201C1347.2 9.51965 1353.08 14.45 1357.21 20.8132C1361.38 27.1342 1363.49 34.5298 1363.53 43H1329.91Z" fill="url(#paint0_linear_423_101)"></path>
    <defs>
        <linearGradient id="paint0_linear_423_101" x1="581.5" y1="-601" x2="581.5" y2="185" gradientUnits="userSpaceOnUse">
            <stop stop-color="white"></stop>
            <stop offset="1" stop-color="white" stop-opacity="0"></stop>
        </linearGradient>
    </defs>
</svg>