<svg xmlns="http://www.w3.org/2000/svg" width="490" height="304" viewBox="0 0 490 304" fill="none">
    <path fill-rule="evenodd" clip-rule="evenodd" d="M0 -124H490V304H0V-124ZM0.765625 -123.236H60.4844V-63.6214H0.765625V-123.236ZM62.0156 -123.236H121.734V-63.6214H62.0156V-123.236ZM182.984 -123.236H123.266V-63.6214H182.984V-123.236ZM184.516 -123.236H244.234V-63.6214H184.516V-123.236ZM305.484 -123.236H245.766V-63.6214H305.484V-123.236ZM307.016 -123.236H366.734V-63.6214H307.016V-123.236ZM427.984 -123.236H368.266V-63.6214H427.984V-123.236ZM429.516 -123.236H489.234V-63.6214H429.516V-123.236ZM60.4844 -62.0929H0.765625V-2.47857H60.4844V-62.0929ZM62.0156 -62.0929H121.734V-2.47857H62.0156V-62.0929ZM182.984 -62.0929H123.266V-2.47857H182.984V-62.0929ZM184.516 -62.0929H244.234V-2.47857H184.516V-62.0929ZM305.484 -62.0929H245.766V-2.47857H305.484V-62.0929ZM307.016 -62.0929H366.734V-2.47857H307.016V-62.0929ZM427.984 -62.0929H368.266V-2.47857H427.984V-62.0929ZM429.516 -62.0929H489.234V-2.47857H429.516V-62.0929ZM60.4844 -0.949997H0.765625V58.6643H60.4844V-0.949997ZM62.0156 -0.949997H121.734V58.6643H62.0156V-0.949997ZM182.984 -0.949997H123.266V58.6643H182.984V-0.949997ZM184.516 -0.949997H244.234V58.6643H184.516V-0.949997ZM305.484 -0.949997H245.766V58.6643H305.484V-0.949997ZM307.016 -0.949997H366.734V58.6643H307.016V-0.949997ZM427.984 -0.949997H368.266V58.6643H427.984V-0.949997ZM429.516 -0.949997H489.234V58.6643H429.516V-0.949997ZM60.4844 60.1929H0.765625V119.807H60.4844V60.1929ZM62.0156 60.1929H121.734V119.807H62.0156V60.1929ZM182.984 60.1929H123.266V119.807H182.984V60.1929ZM184.516 60.1929H244.234V119.807H184.516V60.1929ZM305.484 60.1929H245.766V119.807H305.484V60.1929ZM307.016 60.1929H366.734V119.807H307.016V60.1929ZM427.984 60.1929H368.266V119.807H427.984V60.1929ZM429.516 60.1929H489.234V119.807H429.516V60.1929ZM60.4844 121.336H0.765625V180.95H60.4844V121.336ZM62.0156 121.336H121.734V180.95H62.0156V121.336ZM182.984 121.336H123.266V180.95H182.984V121.336ZM184.516 121.336H244.234V180.95H184.516V121.336ZM305.484 121.336H245.766V180.95H305.484V121.336ZM307.016 121.336H366.734V180.95H307.016V121.336ZM427.984 121.336H368.266V180.95H427.984V121.336ZM429.516 121.336H489.234V180.95H429.516V121.336ZM60.4844 182.479H0.765625V242.093H60.4844V182.479ZM62.0156 182.479H121.734V242.093H62.0156V182.479ZM182.984 182.479H123.266V242.093H182.984V182.479ZM184.516 182.479H244.234V242.093H184.516V182.479ZM305.484 182.479H245.766V242.093H305.484V182.479ZM307.016 182.479H366.734V242.093H307.016V182.479ZM427.984 182.479H368.266V242.093H427.984V182.479ZM429.516 182.479H489.234V242.093H429.516V182.479ZM60.4844 243.621H0.765625V303.236H60.4844V243.621ZM62.0156 243.621H121.734V303.236H62.0156V243.621ZM182.984 243.621H123.266V303.236H182.984V243.621ZM184.516 243.621H244.234V303.236H184.516V243.621ZM305.484 243.621H245.766V303.236H305.484V243.621ZM307.016 243.621H366.734V303.236H307.016V243.621ZM427.984 243.621H368.266V303.236H427.984V243.621ZM429.516 243.621H489.234V303.236H429.516V243.621Z" fill="url(#paint0_linear_853_207)"></path>
    <defs>
        <linearGradient id="paint0_linear_853_207" x1="-68" y1="-159.5" x2="245" y2="304" gradientUnits="userSpaceOnUse">
            <stop stop-color="white"></stop>
            <stop offset="0.657437" stop-color="white" stop-opacity="0"></stop>
        </linearGradient>
    </defs>
</svg>